<svg xmlns="http://www.w3.org/2000/svg" xml:space="preserve" width="100.28035mm" height="100.21075mm" viewBox="0 0 100.28035 100.21074"><path d="M106.524 161.728c-6.061-.703-11.198-4.69-13.292-10.314-1.664-4.47-1.177-9.849 1.25-13.792.96-1.56 1-2.201.175-2.742-.585-.383-.713-.352-2.167.523-3.182 1.917-6.674 2.676-10.244 2.228-2.393-.3-3.3-.59-5.6-1.784-8.04-4.172-10.88-14.39-6.206-22.333l1.05-1.786-1.05-1.786c-2.368-4.025-2.94-8.98-1.519-13.134.906-2.647 1.743-4.069 3.528-5.998 2.58-2.786 5.82-4.463 9.75-5.048 3.358-.5 7.256.344 10.356 2.24 1.608.983 1.947.993 2.55.071.358-.545.318-.704-.511-2.028-1.527-2.44-2.287-5.225-2.306-8.449-.013-2.428.084-3.062.776-5.038 1.412-4.032 4.052-7.147 7.658-9.036 2.774-1.452 4.59-1.898 7.654-1.879 3.141.02 6.036.83 8.291 2.32.777.513 1.51.933 1.631.933.12 0 .854-.42 1.63-.933 2.31-1.526 5.145-2.306 8.424-2.316 2.41-.008 3.077.094 5.039.776 2.751.956 4.793 2.273 6.679 4.31 1.788 1.932 2.624 3.355 3.524 5.998 1.425 4.186.756 9.71-1.609 13.289-.513.777-.933 1.5-.933 1.608 0 .107.29.467.644.8l.644.605 1.609-.977c6.652-4.041 14.954-2.91 20.198 2.754 1.788 1.932 2.624 3.355 3.524 5.998 1.022 3.003 1.014 6.73-.022 9.813-.4 1.193-1.132 2.78-1.624 3.528s-.896 1.477-.896 1.62c0 .142.294.644.653 1.114 2.552 3.346 3.377 9.337 1.893 13.735-1.368 4.054-4.172 7.387-7.792 9.265-2.23 1.157-3.154 1.449-5.533 1.748-3.95.496-8.009-.548-11.509-2.958-.383-.264-.577-.2-1.157.38l-.698.697.956 1.549c4.906 7.948 2.08 18.356-6.16 22.686-2.524 1.326-4.455 1.782-7.576 1.79-3.1.008-5.786-.742-8.214-2.295-.792-.507-1.542-.921-1.667-.921s-.92.417-1.765.926c-2.039 1.228-4.023 1.948-5.874 2.132-.834.083-1.754.183-2.045.223s-1.244-.01-2.117-.112m3.572-3.412c1.923-.318 4.175-1.186 5.16-1.988l.793-.648-2.878-2.898-2.878-2.898-1.523.138c-1.92.174-3.493-.602-4.258-2.1-.625-1.226-.658-3.298-.066-4.187.24-.36 2.602-2.857 5.249-5.549s5.072-5.33 5.39-5.86c1.478-2.47 2.092-5.693 1.63-8.552-1.324-8.197-10.187-12.952-17.724-9.508-2.8 1.278-2.819 1.123.571 4.523 2.395 2.402 3.087 2.956 3.517 2.82 1.814-.58 4.193.424 4.991 2.107.5 1.055.57 2.715.157 3.8-.155.407-2.582 3.064-5.393 5.904-5.573 5.63-6.238 6.579-6.935 9.892-1.467 6.977 3.242 13.773 10.368 14.965 1.838.307 2.181.31 3.829.039m20.683-.14c8.186-1.735 12.488-10.294 8.932-17.772-1.284-2.702-1.197-2.713-4.45.53l-2.849 2.84.12 1.453c.16 1.915-.429 3.222-1.87 4.157-1.184.767-2.745.93-4.079.427-.41-.155-3.366-2.893-6.571-6.084l-5.827-5.803-2.904 2.916-2.905 2.916 6.35 6.303c6.854 6.804 7.6 7.352 10.996 8.088 2.203.478 2.918.482 5.057.028m6.569-29.38-2.911-2.911-6.943 6.942-6.942 6.943 2.905 2.913 2.904 2.914 6.95-6.945 6.948-6.945zm-51.33 5.443c1.924-.318 4.176-1.186 5.16-1.988l.794-.648-2.878-2.898-2.878-2.898-1.523.138c-2.818.255-4.76-1.53-4.76-4.378 0-1.727.39-2.22 6.72-8.514 2.853-2.836 5.187-5.28 5.187-5.429s-1.251-1.518-2.78-3.041l-2.78-2.77-6.21 6.206c-6.809 6.804-7.525 7.776-8.24 11.18-1.426 6.78 2.922 13.395 9.787 14.888 2.005.436 2.564.455 4.402.152m70.879-.712c6.869-2.585 10.057-10.542 6.892-17.2-1.285-2.702-1.197-2.713-4.45.53l-2.85 2.84.121 1.453c.086 1.043-.015 1.753-.358 2.515-.86 1.908-3.47 2.874-5.588 2.068-.407-.155-3.067-2.59-5.911-5.41-4.387-4.351-5.43-5.25-6.883-5.926-6.99-3.254-14.862.02-17.492 7.274-1.177 3.249-.63 7.936 1.263 10.795l.68 1.027 2.97-2.961 2.97-2.962-.117-1.402c-.14-1.688.426-3.07 1.598-3.904.86-.613 2.893-.924 4.086-.625.47.118 2.627 2.049 5.901 5.285 2.838 2.805 5.695 5.402 6.35 5.77 1.25.703 3.29 1.415 4.63 1.617 1.538.23 4.484-.143 6.188-.784m-55.727-2.95 2.838-2.848-6.947-6.944-6.947-6.943-2.904 2.913-2.905 2.913 6.875 6.878c3.78 3.782 6.936 6.877 7.012 6.877.077 0 1.416-1.28 2.978-2.847m62.58-23.347c4.387-9.331-3.328-19.704-13.39-18.001-1.79.303-5.604 1.9-5.604 2.347 0 .102 1.3 1.48 2.888 3.063l2.887 2.878 1.809.028c1.418.021 1.988.155 2.636.618 1.49 1.062 2.113 3.405 1.405 5.28-.155.409-2.86 3.334-6.013 6.5l-5.731 5.757 2.904 2.915 2.904 2.916 6.248-6.29c5.395-5.434 6.358-6.526 7.056-8.011m-44.439 9.194c.757-1.1 2.593-2.91 4.158-4.101l.782-.595-.794-.596c-.436-.327-1.508-1.31-2.38-2.183-.874-.873-1.856-1.944-2.184-2.38l-.595-.794-.595.793c-.784 1.046-3.267 3.534-4.432 4.443l-.926.723.782.592c1.55 1.173 3.399 2.995 4.158 4.098.426.618.881 1.124 1.013 1.124s.587-.506 1.013-1.124m-10.838-6.84c3.184-1.08 6.308-4.055 7.471-7.117 1.342-3.53 1.24-6.976-.3-10.203-1.298-2.72-1.203-2.73-4.478.534l-2.866 2.857.138 1.524c.114 1.255.034 1.71-.456 2.58-1.032 1.837-3.433 2.672-5.463 1.9-.402-.152-3.073-2.592-5.935-5.42-5.785-5.72-6.852-6.434-10.499-7.03-4.738-.774-9.89 1.514-12.472 5.54-2.62 4.082-2.677 9.785-.137 13.624l.693 1.047 2.92-2.921 2.921-2.921.028-1.812c.033-2.127.623-3.19 2.182-3.93 1.092-.517 2.963-.571 3.864-.11.328.167 2.858 2.537 5.623 5.265 5.692 5.617 7.065 6.545 10.716 7.247 1.278.247 4.383-.09 6.05-.655m25.7.578c1.923-.318 4.175-1.186 5.16-1.988l.793-.648-2.873-2.893-2.873-2.894-1.625.113c-1.349.093-1.8.009-2.655-.496-.567-.335-1.252-1.023-1.522-1.53-.622-1.17-.649-3.354-.052-4.245.24-.36 2.664-2.917 5.385-5.681 4.134-4.2 5.081-5.31 5.759-6.747 3.702-7.85-1.013-16.749-9.546-18.018-3.12-.464-6.89.403-8.858 2.038l-.604.501 2.896 2.883 2.896 2.883 1.809.028c1.418.021 1.988.155 2.636.617 1.486 1.06 2.114 3.41 1.408 5.267-.153.403-2.595 3.076-5.427 5.941-5.71 5.777-6.416 6.835-7.028 10.543-1.084 6.567 3.474 12.944 10.22 14.298 1.484.298 2.423.304 4.101.028m15.15-3.663 2.84-2.847-6.948-6.944-6.947-6.943-2.904 2.913-2.904 2.913 6.874 6.878c3.78 3.782 6.936 6.877 7.012 6.877.077 0 1.417-1.28 2.978-2.847m-33.406-22.952c0-.15-1.251-1.518-2.78-3.042l-2.78-2.771-6.941 6.94-6.941 6.941 2.905 2.914 2.904 2.914 6.817-6.813c3.748-3.747 6.816-6.934 6.816-7.083m-11.85-5.533c-.14-1.688.426-3.07 1.597-3.905.86-.612 2.894-.924 4.083-.625.474.119 2.85 2.282 6.63 6.038l5.89 5.853 2.874-2.765c1.58-1.52 2.89-2.83 2.91-2.91.02-.079-2.791-2.95-6.247-6.379-5.412-5.37-6.523-6.347-8.004-7.046-6.953-3.282-14.872-.004-17.499 7.242-1.177 3.248-.63 7.936 1.263 10.795l.68 1.027 2.97-2.961 2.97-2.962z" style="fill:#000;fill-opacity:1" transform="translate(-68.152 -61.643)"/><path d="m300.066 215.367-11.112-11.146 17.588-17.734c17.805-17.953 25.33-26.01 26.804-28.7.6-1.098.81-2.656.81-6.028 0-4.012-.164-4.904-1.392-7.564-1.734-3.754-5.09-6.927-8.139-7.695-1.179-.297-4.579-.539-7.556-.538l-5.413.002-11.178-11.228c-6.148-6.176-11.092-11.509-10.987-11.85.295-.956 8.652-4.938 14.266-6.798 2.765-.916 6.965-1.922 9.335-2.235 21.715-2.87 43.162 10.77 50.483 32.108 3.594 10.472 3.194 23.204-1.056 33.628-3.161 7.754-5.427 10.38-33.478 38.816l-17.864 18.108z" style="fill:#fff;fill-opacity:1;stroke:#fff;stroke-width:.478734;stroke-linecap:round;stroke-linejoin:round" transform="scale(.26458)"/><path d="m269.024 154.397-26.306-26.017 11.13-11.169 11.131-11.168 26.33 26.326 26.329 26.326-10.412 10.445c-5.726 5.745-10.745 10.632-11.153 10.86-.578.322-6.602-5.38-27.049-25.603" style="fill:#fff;fill-opacity:1;stroke:#fff;stroke-width:.478734;stroke-linecap:round;stroke-linejoin:round" transform="scale(.26458)"/><path d="M235.513 183.613c-9.51-1.727-17.013-5.298-24.551-11.684-6.469-5.48-12.866-16.023-14.998-24.718-1.371-5.594-1.467-14.868-.214-20.746 2.492-11.693 5.352-15.78 25.685-36.702 12.882-13.255 19.765-20.804 20.954-22.98.571-1.045.786-2.675.787-5.984.002-4.002-.164-4.91-1.381-7.564-1.697-3.699-5.06-6.908-8.028-7.66-1.133-.287-4.627-.625-7.765-.752l-5.706-.23-10.948-10.927-10.949-10.926 1.814-1.553c2.684-2.3 8.487-5.177 13.18-6.537 17.574-5.092 36.068-.238 48.524 12.737 6.506 6.776 10.539 14.52 12.434 23.876 1.079 5.324.737 15.881-.682 21.026-2.153 7.81-5.115 13.277-10.376 19.15-1.533 1.71-9.768 10.328-18.301 19.149-8.533 8.82-16.09 17.007-16.793 18.191-1.145 1.93-1.279 2.63-1.279 6.703 0 6.051.906 8.61 4.195 11.85 3.972 3.91 5.942 4.555 13.323 4.354l6.154-.167 10.752 11.057 10.752 11.057-2.242 1.682c-3.667 2.752-6.27 4.065-11.577 5.84-8.708 2.91-15.96 3.694-22.764 2.458" style="fill:#fff;fill-opacity:1;stroke:#fff;stroke-width:.478734;stroke-linecap:round;stroke-linejoin:round" transform="scale(.26458)"/><path d="M111.126 85.744c-4.702-7.78-6.506-14.082-6.865-23.987-.185-5.117-.059-7.953.479-10.788 2.66-14.023 12.802-27.114 25.989-33.544 6.759-3.295 12.492-4.605 20.312-4.64 13.07-.056 21.81 3.26 31.915 12.11 6.919 6.058 43.246 42.371 43.246 43.228 0 .664-20.478 20.959-21.493 21.302-.23.077-8.793-8.109-19.031-18.192-19.42-19.126-25.393-24.678-28.002-26.027-1.255-.65-2.392-.753-5.89-.54-5.27.322-7.165.855-10.162 2.861-1.78 1.192-2.687 2.295-3.984 4.849-1.65 3.248-1.68 3.406-1.68 9.21v5.905l-11.006 11.016c-6.054 6.06-11.128 11.016-11.275 11.016s-1.296-1.7-2.553-3.78M130.08 183.76c-4.38-.48-11.286-2.771-15.12-5.017-4.932-2.89-10.28-7.374-20.598-17.272-28.575-27.413-26.75-25.982-33.117-25.987-6.569-.005-11.864 2.625-14.25 7.078-1.21 2.258-1.407 3.27-1.82 9.335l-.463 6.803-10.862 10.892c-5.975 5.99-10.976 10.89-11.113 10.89-.449 0-5.1-7.834-6.124-10.314-2.35-5.693-3.07-9.338-3.307-16.734-.264-8.223.545-13.4 3.143-20.11 6.127-15.828 21.06-27.148 38.845-29.445 5.19-.67 10.253-.378 16.27.94 5.577 1.222 8.673 2.524 13.172 5.539 5.016 3.361 7.852 5.875 21.249 18.839 14.797 14.317 20.937 19.946 23.337 21.394 4.456 2.687 12.157 1.764 17.13-2.053 2.588-1.987 5.261-6.27 5.712-9.153.15-.962.067-3.796-.185-6.297l-.458-4.548 9.716-9.596c5.344-5.278 10.416-9.886 11.271-10.24 2.597-1.076 3.566-.246 6.231 5.339 4.108 8.608 5.334 13.653 5.334 21.953 0 10.857-3.214 20.734-9.336 28.69-4.851 6.304-13.345 12.998-19.804 15.607-6.887 2.782-17.536 4.267-24.852 3.466" style="fill:#fff;fill-opacity:1;stroke:#fff;stroke-width:.478734;stroke-linecap:round;stroke-linejoin:round" transform="scale(.26458)"/><path d="M52.782 274.308c-10.72-2.232-18.626-6.337-25.793-13.394-12.647-12.451-17.153-30.264-12.09-47.785 2.866-9.913 6.654-14.526 35.969-43.8l17.64-17.615 10.646 10.792c9.662 9.796 10.595 10.884 10.11 11.792-.295.55-8.76 9.33-18.812 19.51-19.91 20.166-22.864 23.44-24.631 27.296-2.2 4.802-.874 12.635 2.894 17.088 2.958 3.496 8.64 5.166 15.435 4.535l3.83-.356 11.088 11.019 11.088 11.018-1.882 1.573c-3.003 2.509-6.576 4.346-11.944 6.14-9.424 3.15-15.992 3.76-23.548 2.187M144.578 365.441c-17.417-3.12-30.817-13.803-37.439-29.848-3.57-8.652-4.279-19.23-1.926-28.768 2.78-11.272 4.885-14.178 25.974-35.861 13.816-14.206 19.28-20.28 20.243-22.501 1.065-2.457 1.004-9.155-.114-12.42-2.175-6.352-10.807-11.084-17.572-9.633-1.966.421-2.645.375-3.911-.267-.843-.427-5.775-5.005-10.96-10.173-9.451-9.419-10.74-11.152-9.627-12.941 1.098-1.763 10.057-5.77 16.422-7.344 5.88-1.455 15.371-1.414 21.271.09 14.383 3.668 25.887 12.675 32.093 25.128 3.367 6.756 4.63 11.751 4.913 19.422.267 7.263-.46 12.423-2.586 18.34-2.943 8.198-4.268 9.893-22.518 28.797-20.377 21.108-21.998 22.947-22.662 25.719-.924 3.851-.333 9.033 1.44 12.637 3.09 6.275 8.92 8.877 17.833 7.959l3.693-.38 11.048 11.055 11.049 11.056-2.773 2.079c-4.952 3.71-12.073 6.489-20.384 7.951-4.764.839-8.432.812-13.507-.097" style="fill:#fff;fill-opacity:1;stroke:#fff;stroke-width:.478734;stroke-linecap:round;stroke-linejoin:round" transform="scale(.26458)"/><path d="M87.02 245.4 60.8 219.308l11.13-11.152 11.13-11.153 26.33 26.326 26.329 26.326-9.933 9.969c-5.463 5.482-10.52 10.396-11.24 10.92l-1.306.95zM218.322 365.014c-13.52-2.879-15.942-4.699-46.873-35.237l-19.566-19.318 10.998-11.25 10.998-11.25 18.86 18.687c22.765 22.554 26.909 26.263 30.232 27.06 7.39 1.773 15.662-1.979 18.893-8.569 1.267-2.584 1.324-3 1.233-8.962l-.096-6.252 9.365-9.067c5.151-4.987 10.072-9.49 10.935-10.007 2.56-1.532 3.627-.683 6.422 5.113 8.778 18.205 6.996 36.832-4.972 51.957-8.163 10.318-22.416 17.453-36.155 18.1-3.646.172-5.684-.028-10.274-1.005" style="fill:#fff;fill-opacity:1;stroke:#fff;stroke-width:.478734;stroke-linecap:round;stroke-linejoin:round" transform="scale(.26458)"/><path d="m208.876 306.244-10.863-11.104 26.18-26.21 26.18-26.21 11.134 11.127 11.134 11.127-26.21 26.213c-14.415 14.418-26.318 26.202-26.451 26.187s-5.13-5.023-11.104-11.13" style="fill:#fff;fill-opacity:1;stroke:#fff;stroke-width:.478734;stroke-linecap:round;stroke-linejoin:round" transform="scale(.26458)"/><path d="M307.687 273.798c-5.654-1.519-11.955-4.255-14.863-6.455-3.555-2.689-8.809-7.525-23.068-21.236-14.323-13.773-19.205-18.106-21.471-19.055-2.13-.892-8.11-.6-11.97.586-3.28 1.008-6.743 4.179-8.253 7.558-.985 2.203-1.108 3.175-1.053 8.288l.062 5.793-11.196 11.188c-12.753 12.745-11.013 12.06-14.633 5.764-6.835-11.888-8.188-28.677-3.298-40.94 10.522-26.388 39.83-38.025 65.36-25.951 5.555 2.627 9.548 6.002 25.654 21.689 14.522 14.143 20.725 19.815 23.015 21.045 1.196.642 2.682.858 5.907.86 3.706.002 4.717-.185 7.237-1.34 3.503-1.604 6.437-4.462 7.94-7.73.988-2.152 1.09-3.028 1.012-8.673l-.087-6.28 9.357-9.04c10.58-10.22 11.877-11.199 13.725-10.357 1.55.706 5.439 8.518 7.33 14.722 1.223 4.014 1.312 4.897 1.312 12.925 0 8.025-.09 8.914-1.311 12.926-5.582 18.34-19.46 30.775-37.898 33.961-6.046 1.045-14.408.934-18.81-.248M117.885 124.11 107 113.214l26.214-26.21 26.214-26.211 5.587 5.388c3.074 2.964 7.864 7.828 10.646 10.81 4.607 4.938 5.008 5.514 4.502 6.463-.577 1.08-50.615 51.548-51.11 51.548-.154 0-5.18-4.902-11.167-10.894" style="fill:#fff;fill-opacity:1;stroke:#fff;stroke-width:.478734;stroke-linecap:round;stroke-linejoin:round" transform="scale(.26458)"/></svg>